<?xml version="1.0" standalone="no"?>
<!DOCTYPE svg PUBLIC "-//W3C//DTD SVG 20010904//EN"
 "http://www.w3.org/TR/2001/REC-SVG-20010904/DTD/svg10.dtd">
<svg version="1.0" xmlns="http://www.w3.org/2000/svg"
 width="1600.000000pt" height="1572.000000pt" viewBox="0 0 1600.000000 1572.000000"
 preserveAspectRatio="xMidYMid meet">
<metadata>
Created by potrace 1.15, written by Peter Selinger 2001-2017
</metadata>
<g transform="translate(0.000000,1572.000000) scale(0.100000,-0.100000)"
fill="#3F704D" stroke="none">
<path d="M6425 15703 c-316 -64 -488 -103 -657 -149 -194 -53 -464 -136 -563
-173 -27 -11 -84 -31 -125 -46 -177 -65 -590 -238 -670 -280 -14 -8 -104 -53
-200 -100 -96 -48 -179 -91 -185 -95 -5 -4 -39 -23 -75 -42 -294 -158 -708
-430 -1015 -667 -109 -84 -325 -263 -460 -382 -180 -157 -579 -568 -770 -793
-204 -240 -483 -624 -662 -911 -165 -266 -406 -717 -488 -915 -28 -65 -80
-183 -94 -210 -9 -18 -131 -343 -190 -510 -82 -229 -181 -595 -234 -870 -3
-14 -13 -44 -21 -68 -15 -39 -16 -185 -14 -1515 3 -1377 4 -1474 21 -1511 9
-21 17 -57 17 -80 0 -22 4 -57 9 -76 27 -105 53 -210 62 -250 6 -25 15 -64 21
-87 6 -23 8 -55 6 -72 -3 -19 0 -27 7 -25 13 6 36 -61 28 -82 -3 -8 0 -20 6
-28 16 -19 71 -172 80 -223 4 -23 15 -53 25 -67 9 -14 14 -26 11 -26 -4 0 1
-10 9 -22 9 -12 16 -35 16 -50 0 -15 9 -50 20 -78 11 -28 19 -54 18 -58 -1 -7
34 -90 52 -124 13 -24 12 -58 -1 -58 -8 0 -8 -4 -1 -13 5 -6 13 -27 17 -45 4
-18 19 -47 33 -64 15 -18 21 -28 13 -24 -25 16 -2 -31 34 -67 19 -19 37 -47
41 -63 7 -30 64 -155 75 -164 3 -3 9 -18 13 -35 4 -16 20 -47 37 -67 16 -20
29 -44 29 -53 0 -8 13 -39 29 -69 15 -29 33 -66 39 -82 11 -27 34 -71 120
-227 18 -32 32 -66 32 -76 0 -9 13 -27 29 -39 32 -23 89 -124 73 -130 -18 -6
27 -79 68 -112 22 -17 40 -37 40 -43 0 -7 12 -25 26 -42 34 -40 59 -83 73
-126 6 -20 19 -44 29 -55 10 -10 30 -39 44 -64 32 -54 76 -104 103 -118 11 -6
31 -31 43 -56 13 -25 31 -51 41 -58 23 -16 62 -79 55 -90 -3 -4 2 -5 11 -2 10
4 14 2 10 -7 -5 -14 38 -69 55 -69 5 0 7 -7 4 -15 -5 -11 -2 -13 10 -9 12 5
15 2 10 -10 -4 -11 -1 -16 10 -16 9 0 16 -8 16 -19 0 -10 28 -43 65 -76 36
-31 63 -61 59 -66 -3 -5 23 -38 58 -74 82 -84 107 -113 101 -119 -3 -3 7 -8
21 -12 17 -4 25 -11 22 -20 -3 -8 -2 -13 2 -11 10 3 51 -40 44 -47 -3 -4 4
-15 15 -26 12 -10 23 -16 26 -14 3 3 14 -7 23 -23 50 -77 465 -466 680 -635
39 -31 77 -63 85 -70 8 -7 43 -34 79 -60 36 -26 70 -51 75 -55 76 -61 275
-201 446 -313 42 -28 189 -117 231 -140 15 -8 85 -49 155 -91 257 -152 442
-247 716 -368 76 -34 140 -61 142 -61 3 0 28 -11 57 -23 48 -22 204 -85 253
-103 200 -73 423 -150 485 -167 30 -9 96 -27 145 -42 428 -123 831 -203 1340
-265 217 -26 650 -50 908 -50 718 0 1397 89 2121 279 346 91 863 271 1126 393
25 11 84 38 132 59 48 21 95 43 105 48 10 6 88 45 173 87 180 88 297 150 395
208 39 23 99 59 135 80 36 21 81 49 100 61 81 52 364 238 374 246 6 5 67 49
135 98 316 228 624 493 941 811 135 135 260 263 278 284 52 62 146 170 160
185 7 8 73 89 146 180 234 294 423 565 602 866 63 105 117 195 121 200 5 6 24
42 44 80 20 39 61 118 93 178 127 242 291 618 405 932 107 293 243 772 292
1030 51 264 68 356 78 425 6 41 18 118 26 170 54 355 81 1041 55 1430 -20 299
-42 517 -71 710 -16 107 -32 202 -34 210 -2 8 -6 31 -9 50 -25 167 -131 615
-194 825 -17 55 -42 138 -56 185 -14 47 -39 123 -57 170 -17 47 -44 121 -59
165 -16 44 -41 109 -55 145 -55 134 -128 305 -136 320 -5 8 -41 85 -80 170
-40 85 -82 173 -94 195 -12 22 -46 85 -75 140 -46 87 -107 195 -147 260 -7 11
-15 27 -19 35 -10 19 -148 242 -184 295 -15 22 -40 60 -56 85 -16 25 -65 94
-108 155 -44 60 -89 124 -101 141 -11 16 -36 50 -56 75 -19 24 -80 100 -134
169 -54 69 -115 143 -134 166 -20 22 -49 56 -66 75 -267 311 -683 713 -978
946 -45 36 -92 73 -103 83 -145 122 -554 405 -815 562 -192 116 -201 121 -404
230 -458 245 -1051 484 -1540 623 -158 45 -419 111 -530 135 -336 71 -159 65
-1735 66 -1186 1 -1426 -1 -1485 -13z m1675 -168 c162 -1 338 -7 390 -13 52
-6 124 -14 160 -17 173 -17 245 -30 245 -45 0 -8 -17 -23 -38 -33 -46 -21 -94
-92 -102 -151 -3 -22 -7 -71 -8 -108 -2 -37 -8 -73 -14 -79 -8 -8 -37 -9 -110
-1 -210 24 -727 32 -763 12 -16 -9 -20 -21 -20 -64 0 -69 22 -92 73 -78 68 19
73 4 68 -195 -1 -13 -7 -23 -14 -23 -7 0 -25 -12 -41 -26 -25 -24 -28 -32 -24
-75 8 -84 116 -184 191 -177 29 3 34 8 51 61 l18 57 69 0 c37 0 71 -5 74 -10
4 -6 11 -8 16 -5 19 12 31 -48 20 -105 -5 -30 -13 -103 -17 -161 l-6 -106 27
-19 c14 -11 39 -29 55 -41 15 -13 34 -23 42 -23 31 0 46 100 68 435 14 209 31
368 42 383 12 14 134 17 171 3 30 -12 40 -60 28 -134 -5 -29 -14 -90 -21 -137
-6 -47 -15 -94 -20 -105 -8 -20 -20 -107 -41 -289 l-11 -99 31 -24 c17 -14 31
-30 31 -37 0 -7 11 -19 25 -26 23 -12 28 -12 48 8 16 17 23 39 28 90 3 37 11
99 17 137 6 39 18 122 27 185 9 63 20 135 25 160 5 25 15 79 21 120 17 103 21
110 72 110 23 -1 53 -7 67 -15 14 -8 36 -14 50 -15 14 0 54 -6 90 -14 36 -8
109 -23 162 -32 83 -15 100 -15 114 -3 14 11 18 11 28 -2 13 -19 56 -43 63
-36 2 3 35 -5 73 -18 38 -13 95 -29 127 -35 96 -20 129 -49 104 -89 -10 -16
-81 -10 -146 14 -66 23 -111 19 -161 -16 -37 -25 -52 -30 -77 -24 -18 3 -75
10 -127 15 -52 5 -117 16 -145 24 -70 22 -117 20 -150 -6 -26 -20 -27 -25 -22
-84 3 -48 12 -73 36 -109 17 -25 31 -53 31 -61 0 -22 26 -45 68 -60 53 -18 64
-4 86 107 9 42 42 50 113 27 68 -22 73 -32 73 -129 0 -64 44 -160 98 -216 41
-41 129 -83 176 -83 40 0 63 -30 76 -100 20 -102 34 -130 66 -130 30 0 74 35
74 57 0 8 -11 38 -24 66 -30 63 -36 118 -16 139 68 70 83 121 60 203 -14 51
-32 65 -84 65 -50 0 -63 -8 -96 -55 -49 -72 -53 -74 -102 -61 -25 7 -60 27
-86 52 -43 41 -43 42 -37 90 9 57 27 92 61 117 33 25 95 24 137 -2 19 -11 45
-21 59 -21 13 0 48 -6 78 -14 65 -17 84 -10 100 38 6 19 18 40 26 46 7 7 14
27 14 46 0 18 7 40 16 48 17 18 64 22 64 6 0 -5 8 -10 18 -10 10 0 26 -6 37
-14 11 -7 34 -16 50 -20 17 -4 48 -15 70 -25 74 -35 116 -51 130 -51 26 0 16
-70 -19 -140 -25 -50 -37 -64 -52 -62 -110 16 -136 -4 -142 -107 -2 -38 1 -85
7 -104 7 -20 16 -66 21 -104 5 -37 20 -106 33 -153 14 -47 35 -120 48 -164 27
-94 53 -119 94 -92 36 24 33 74 -11 176 -41 97 -49 129 -59 221 l-6 65 56 29
c56 30 135 105 135 129 0 7 11 30 25 51 14 20 29 51 32 68 9 43 42 97 59 97 8
0 14 -4 14 -10 0 -5 17 -14 38 -19 20 -6 55 -20 77 -31 l39 -20 31 30 c23 24
30 39 30 71 0 46 -22 69 -64 69 -13 0 -56 15 -95 34 -39 18 -102 44 -141 56
-62 20 -114 42 -260 110 -63 30 -211 80 -235 80 -12 0 -36 6 -53 14 -54 23
-90 35 -132 42 -46 7 -123 29 -175 49 -19 8 -54 17 -77 20 -36 6 -43 11 -56
43 -8 20 -34 64 -56 97 -23 33 -52 76 -65 95 -31 46 -173 192 -211 216 -42 27
-75 56 -75 66 0 13 161 -3 185 -18 11 -7 57 -18 103 -24 46 -6 93 -15 105 -21
12 -5 47 -13 77 -18 63 -11 202 -44 274 -66 26 -8 58 -15 70 -15 11 0 36 -9
54 -20 18 -11 44 -20 58 -20 14 0 35 -5 46 -11 11 -6 56 -20 100 -30 43 -10
89 -26 103 -35 13 -8 52 -22 87 -30 35 -8 81 -23 103 -33 22 -10 65 -26 95
-37 30 -10 62 -24 71 -31 8 -7 23 -13 31 -13 9 0 29 -7 44 -15 16 -8 36 -15
44 -15 9 0 24 -6 35 -13 11 -8 58 -29 105 -47 138 -54 349 -153 506 -239 40
-21 82 -42 95 -46 13 -4 35 -16 48 -26 13 -11 31 -19 41 -19 9 0 41 -17 71
-38 30 -20 89 -57 132 -81 42 -25 77 -48 77 -51 0 -4 18 -15 40 -25 22 -10 40
-22 40 -26 0 -5 15 -16 33 -24 29 -13 60 -31 155 -90 17 -11 32 -26 32 -32 0
-7 6 -13 14 -13 8 0 37 -16 66 -35 29 -19 54 -35 57 -35 7 0 97 -74 101 -82 2
-5 8 -8 14 -8 11 0 67 -41 110 -82 17 -15 37 -28 45 -28 8 0 40 -26 72 -57 31
-32 83 -76 116 -98 33 -22 79 -58 102 -80 24 -22 73 -68 110 -102 234 -213
663 -641 663 -660 0 -4 15 -21 34 -38 37 -33 113 -124 166 -199 19 -27 51 -65
71 -85 20 -20 44 -50 52 -67 9 -16 33 -48 55 -70 21 -21 47 -55 57 -74 10 -19
21 -37 24 -40 3 -3 15 -22 26 -43 11 -21 35 -52 53 -69 17 -18 32 -38 32 -45
0 -7 8 -17 19 -22 10 -6 31 -36 46 -68 15 -32 37 -71 49 -88 12 -16 34 -50 48
-75 14 -25 36 -56 48 -70 12 -14 37 -56 57 -95 19 -38 50 -91 69 -116 19 -26
34 -51 34 -56 0 -5 16 -36 36 -69 20 -32 54 -93 76 -134 22 -41 44 -79 49 -85
5 -5 9 -18 9 -28 0 -10 9 -31 19 -46 11 -15 30 -52 44 -82 13 -30 39 -86 57
-124 68 -146 79 -171 91 -215 7 -25 28 -74 46 -110 18 -36 33 -73 33 -82 0
-10 6 -32 14 -50 8 -18 21 -49 29 -68 25 -58 87 -248 87 -267 0 -10 10 -38 21
-63 24 -54 99 -322 99 -356 0 -14 7 -38 15 -54 8 -15 21 -64 29 -107 7 -43 21
-95 30 -117 10 -21 16 -48 15 -60 -2 -11 1 -32 6 -46 4 -14 10 -34 11 -45 2
-11 8 -42 14 -70 6 -27 19 -113 30 -190 11 -77 26 -185 34 -240 8 -55 20 -156
26 -225 6 -69 15 -152 20 -185 12 -74 25 -446 22 -615 -4 -178 -21 -508 -33
-620 -6 -52 -13 -126 -15 -163 -2 -38 -6 -73 -10 -78 -3 -5 -14 -80 -25 -167
-19 -155 -23 -181 -52 -317 -8 -38 -20 -101 -26 -140 -7 -38 -19 -88 -26 -110
-8 -22 -19 -67 -24 -100 -18 -108 -42 -208 -71 -300 -16 -49 -50 -157 -75
-240 -25 -82 -59 -180 -76 -216 -16 -36 -29 -70 -29 -76 0 -14 -83 -229 -114
-298 -13 -27 -27 -61 -31 -75 -9 -30 -68 -163 -91 -205 -39 -71 -94 -183 -94
-192 0 -15 -30 -74 -55 -108 -12 -16 -30 -52 -41 -80 -20 -54 -65 -137 -107
-198 -14 -21 -29 -47 -32 -58 -4 -10 -10 -19 -15 -19 -4 0 -13 -12 -19 -28 -6
-15 -33 -63 -61 -107 -27 -44 -49 -85 -50 -90 0 -6 -14 -23 -30 -38 -16 -16
-30 -35 -30 -42 0 -8 -13 -29 -29 -47 -15 -18 -39 -53 -51 -78 -13 -25 -41
-66 -64 -91 -23 -25 -51 -66 -63 -90 -13 -24 -37 -60 -56 -79 -18 -19 -48 -57
-66 -83 -29 -43 -126 -160 -266 -322 -24 -27 -62 -74 -86 -104 -72 -93 -531
-561 -550 -561 -4 0 -26 -19 -50 -43 -24 -23 -84 -76 -133 -117 -49 -41 -109
-94 -135 -117 -25 -24 -49 -43 -53 -43 -3 0 -24 -15 -46 -32 -83 -69 -116 -94
-146 -110 -17 -9 -54 -39 -83 -67 -29 -27 -63 -53 -75 -57 -22 -7 -65 -36
-100 -71 -10 -9 -34 -23 -53 -32 -19 -9 -58 -35 -87 -59 -51 -42 -139 -96
-262 -162 -33 -18 -66 -38 -73 -46 -8 -7 -42 -27 -76 -44 -34 -17 -91 -48
-127 -70 -36 -21 -83 -48 -105 -59 -22 -11 -47 -25 -55 -30 -8 -5 -42 -21 -75
-36 -61 -26 -94 -42 -130 -63 -11 -6 -56 -28 -100 -47 -44 -20 -102 -47 -130
-60 -71 -33 -282 -120 -335 -138 -25 -9 -88 -32 -140 -52 -52 -21 -124 -45
-160 -55 -36 -10 -87 -26 -115 -37 -27 -11 -68 -24 -90 -28 -22 -4 -46 -12
-53 -17 -7 -6 -29 -14 -50 -19 -20 -4 -75 -17 -122 -29 -95 -24 -222 -54 -320
-75 -36 -8 -105 -24 -155 -35 -113 -25 -192 -39 -275 -50 -36 -5 -87 -13 -115
-18 -154 -29 -320 -51 -387 -52 -32 0 -102 -5 -155 -10 -291 -30 -929 -33
-1183 -7 -36 4 -110 9 -165 11 -56 2 -119 9 -140 15 -22 6 -85 16 -140 21 -55
6 -134 14 -175 18 -42 5 -80 11 -86 15 -6 3 -37 9 -69 12 -32 3 -72 9 -89 14
-17 6 -67 17 -111 26 -44 9 -109 23 -145 32 -36 8 -87 18 -115 23 -59 10 -140
32 -250 67 -44 14 -114 34 -156 44 -42 10 -94 24 -115 32 -21 8 -70 25 -109
37 -38 12 -84 28 -102 36 -17 8 -39 14 -49 14 -9 0 -47 13 -83 29 -36 16 -115
48 -176 72 -60 23 -133 53 -161 66 -28 12 -57 23 -64 23 -8 0 -82 33 -164 74
-83 41 -176 86 -206 100 -30 14 -62 30 -70 35 -8 5 -37 20 -65 32 -27 12 -85
44 -128 71 -43 26 -82 48 -85 48 -4 1 -25 9 -47 20 -22 11 -46 19 -52 20 -7 0
-18 9 -25 21 -7 11 -42 36 -78 55 -36 19 -92 52 -125 74 -33 21 -82 52 -110
69 -75 44 -113 74 -125 97 -7 12 -31 27 -54 34 -22 8 -45 18 -51 24 -19 21
-84 66 -94 66 -6 0 -11 4 -11 9 0 6 -25 25 -55 43 -30 18 -55 36 -55 39 0 7
-71 63 -126 100 -21 14 -81 65 -143 122 -13 12 -34 29 -46 37 -12 8 -55 44
-95 80 -40 36 -83 71 -96 78 -13 7 -24 17 -24 22 0 9 -81 90 -91 90 -4 0 -49
43 -100 96 -94 95 -113 115 -147 145 -9 9 -47 49 -84 90 -101 110 -103 113
-122 129 -9 8 -38 42 -64 75 -26 33 -58 69 -71 80 -31 26 -33 29 -92 107 -28
38 -54 68 -58 68 -8 0 -101 136 -101 149 0 4 -25 33 -55 65 -30 31 -55 60 -55
64 0 4 -10 18 -23 32 -24 26 -137 196 -137 205 0 9 -44 69 -56 77 -6 4 -31 40
-55 80 -23 40 -49 81 -57 90 -8 9 -27 42 -42 74 -16 31 -40 68 -53 83 -14 14
-30 42 -36 62 -7 20 -27 58 -46 85 -19 27 -35 56 -35 64 0 9 -4 20 -9 26 -5 5
-30 50 -56 99 -27 50 -52 92 -56 95 -4 3 -10 22 -14 42 -4 21 -16 47 -26 59
-10 12 -19 26 -19 32 0 13 -31 79 -46 97 -23 29 -134 301 -134 330 0 10 -6 25
-14 32 -23 24 -46 76 -46 105 0 16 -6 37 -14 48 -7 11 -19 38 -26 60 -7 22
-16 44 -21 50 -5 5 -9 19 -9 31 0 12 -13 50 -30 86 -16 35 -35 90 -41 123 -6
33 -17 74 -25 90 -17 37 -79 242 -94 310 -7 28 -20 83 -31 122 -10 40 -19 82
-19 94 0 11 -14 80 -30 152 -35 149 -44 202 -65 372 -8 66 -21 149 -29 185
-18 79 -45 389 -52 600 -3 85 -9 198 -13 250 -9 113 -5 314 10 495 6 72 11
156 10 189 -1 32 5 104 14 160 8 55 17 124 19 151 9 103 26 252 35 295 5 25
17 95 26 155 17 114 26 161 49 255 7 30 21 91 30 135 10 44 26 112 37 150 11
39 27 93 34 120 8 28 22 82 31 120 9 39 20 75 24 80 5 6 11 24 14 40 3 17 12
46 19 65 8 19 29 82 47 140 18 58 41 125 50 150 10 25 24 65 31 90 7 25 30 83
51 128 21 46 38 88 38 94 0 5 17 46 39 91 21 45 46 101 55 124 24 64 189 398
198 401 4 2 8 9 8 16 0 16 28 74 40 81 5 3 20 30 34 61 14 31 39 73 56 94 16
21 30 42 30 47 0 13 113 199 139 229 11 13 21 29 21 34 0 5 14 32 30 58 17 27
30 54 30 59 0 6 18 31 40 56 22 25 40 48 40 51 0 3 14 20 30 38 17 17 30 36
30 43 0 6 20 33 45 61 24 27 44 56 45 65 0 8 16 31 36 50 19 18 56 63 81 99
26 36 74 95 107 131 34 36 81 95 106 130 25 35 74 95 110 133 63 67 334 346
365 376 132 128 180 174 234 220 35 30 80 70 100 89 20 18 52 45 71 59 19 14
53 42 75 62 22 20 61 49 87 64 26 14 54 36 61 47 16 23 213 168 267 198 20 11
72 49 115 85 44 36 86 66 95 66 8 0 32 11 52 25 20 14 39 25 41 25 2 0 23 18
47 40 24 22 55 43 70 47 14 3 48 21 76 39 28 19 55 34 61 34 5 0 38 20 74 45
35 25 72 45 82 45 9 0 17 4 17 8 0 5 70 44 155 86 85 43 157 81 160 86 3 5 19
12 36 15 18 4 53 18 79 31 26 13 52 24 58 24 5 0 12 6 15 14 3 8 26 18 52 21
25 4 64 20 88 36 23 16 49 29 58 29 9 0 43 13 75 30 32 16 73 32 89 36 17 3
35 11 42 16 14 12 194 77 248 89 21 6 45 14 51 20 12 10 176 62 230 74 18 3
40 15 50 26 9 10 27 19 40 19 29 0 144 28 166 40 10 6 33 10 51 10 18 0 76 13
127 30 52 16 108 30 124 30 15 0 58 7 95 14 227 50 342 72 446 85 50 7 108 16
130 22 22 5 90 14 150 19 61 5 154 14 207 20 99 11 202 17 431 24 71 3 131 7
133 9 3 2 17 2 32 0 15 -3 160 -6 322 -8z m1043 -266 c100 -49 130 -67 139
-84 5 -8 20 -27 34 -42 32 -34 87 -142 80 -158 -10 -28 -60 -24 -231 16 -75
17 -140 29 -196 35 -79 9 -90 20 -96 97 -5 59 -3 68 22 101 29 38 43 45 120
56 27 4 54 8 58 9 5 0 36 -13 70 -30z m-772 -318 c22 -18 23 -21 11 -65 -6
-26 -12 -57 -12 -71 0 -13 -5 -36 -12 -50 -11 -24 -14 -25 -104 -25 l-93 0
-10 38 c-6 20 -11 67 -11 104 0 63 1 67 28 76 15 6 61 11 103 11 61 1 82 -3
100 -18z"/>
<path d="M7147 15065 c-26 -7 -105 -16 -175 -19 -70 -4 -147 -11 -172 -17 -64
-14 -156 -38 -216 -55 -28 -8 -63 -14 -77 -14 -14 0 -62 -11 -105 -25 -44 -14
-101 -28 -128 -31 -27 -3 -66 -12 -87 -20 -20 -8 -52 -14 -70 -14 -18 0 -42
-7 -53 -15 -10 -8 -33 -15 -51 -15 -17 0 -35 -4 -38 -10 -3 -5 -20 -10 -36
-10 -16 0 -48 -9 -70 -20 -22 -12 -72 -28 -112 -36 -39 -9 -81 -22 -93 -29
-11 -7 -50 -22 -87 -33 -65 -19 -66 -19 -72 -1 -6 19 -86 62 -135 72 -39 9
-110 28 -165 44 -56 16 -275 29 -328 19 -19 -4 -44 -15 -56 -25 -12 -10 -38
-22 -58 -26 -46 -8 -77 -40 -110 -113 -22 -48 -24 -64 -18 -116 7 -66 16 -85
82 -162 23 -28 43 -55 43 -59 0 -5 -10 -19 -22 -32 -12 -13 -16 -23 -10 -23 7
0 12 -13 12 -29 0 -16 9 -39 19 -52 18 -23 21 -23 66 -11 25 7 50 10 55 7 9
-6 100 -154 100 -164 0 -9 48 -102 63 -120 6 -9 23 -38 37 -66 14 -27 35 -62
47 -77 11 -15 29 -49 39 -75 10 -26 20 -50 24 -53 3 -3 14 -22 25 -43 11 -21
25 -42 30 -47 12 -10 156 -31 167 -24 20 13 -1 78 -53 159 -14 22 -29 52 -32
66 -4 14 -20 43 -36 63 -17 21 -56 88 -87 149 -31 62 -77 146 -102 186 -56 90
-63 143 -22 170 13 9 33 26 44 39 11 12 29 22 40 22 12 0 38 9 59 20 20 11 44
20 52 20 9 0 46 14 83 31 37 17 105 44 152 61 47 16 100 39 117 50 40 24 67
17 81 -20 5 -15 23 -63 40 -107 41 -109 62 -182 62 -214 0 -34 -96 -130 -159
-160 -61 -29 -100 -27 -135 5 -25 24 -28 32 -23 71 8 72 46 110 145 141 97 32
109 48 65 94 -15 16 -44 38 -64 48 -32 17 -38 17 -57 4 -12 -8 -36 -20 -54
-26 -51 -18 -120 -70 -152 -115 -21 -31 -29 -56 -33 -106 -5 -59 -3 -70 26
-123 25 -47 44 -66 89 -94 99 -60 162 -72 259 -46 57 15 109 44 138 76 10 11
24 20 30 20 13 0 47 -64 62 -115 7 -25 16 -32 58 -43 84 -23 107 -25 115 -12
9 15 -10 92 -35 140 -10 19 -22 49 -26 65 -23 88 -40 141 -58 181 -12 24 -21
48 -21 54 0 6 -18 52 -39 104 -42 100 -75 221 -69 252 7 37 401 135 430 106
17 -17 -48 -49 -132 -66 -40 -8 -90 -60 -89 -93 0 -41 31 -109 66 -147 29 -33
30 -35 20 -91 -10 -52 -9 -61 12 -101 30 -56 117 -122 195 -146 112 -36 199
-19 330 62 53 34 76 29 76 -17 0 -30 42 -73 71 -73 12 0 37 -9 56 -21 50 -31
63 -21 56 43 -3 29 -12 78 -20 108 -8 30 -17 71 -19 90 -2 19 -10 53 -18 75
-7 22 -21 72 -30 110 -9 39 -23 95 -31 125 -49 190 -57 231 -51 254 6 24 10
26 64 26 31 0 73 3 94 6 47 8 52 -3 67 -126 7 -52 17 -115 23 -140 6 -25 15
-74 20 -110 5 -36 13 -90 17 -120 16 -110 43 -235 54 -250 20 -26 70 -57 103
-63 27 -5 32 -3 42 27 16 43 15 60 -4 131 -9 33 -24 123 -34 200 -10 77 -28
194 -39 260 -12 66 -21 141 -21 167 0 53 15 67 80 77 34 6 35 8 38 55 5 83
-36 103 -151 71z m-514 -305 c9 -30 20 -68 23 -85 3 -16 14 -64 24 -106 11
-42 21 -103 22 -135 3 -59 3 -60 -45 -106 -93 -92 -256 -148 -301 -102 -28 28
-31 63 -7 88 23 25 130 66 172 66 60 1 61 44 1 111 -39 43 -53 46 -96 24 -15
-8 -46 -15 -68 -15 -22 0 -48 -5 -59 -11 -26 -13 -61 -2 -57 19 4 22 65 62 95
62 13 0 50 7 83 16 49 14 61 22 71 47 9 21 9 34 1 47 -6 10 -14 34 -17 54 -11
57 25 87 100 83 39 -2 40 -3 58 -57z m-1395 -60 c25 -11 50 -20 57 -20 19 0
65 -40 65 -56 0 -8 -12 -19 -27 -26 -16 -6 -49 -21 -74 -34 -26 -13 -56 -24
-66 -24 -11 0 -40 -16 -64 -35 -24 -19 -52 -35 -61 -35 -20 0 -95 -37 -104
-51 -3 -5 -23 -9 -46 -9 -85 0 -137 100 -103 199 12 36 26 52 62 76 26 16 65
32 88 36 68 13 224 1 273 -21z"/>
<path d="M7604 13829 c-3 -6 -87 -13 -334 -28 -69 -4 -138 -13 -155 -19 -16
-7 -77 -16 -135 -21 -58 -4 -118 -13 -135 -19 -16 -6 -66 -19 -110 -28 -44 -9
-93 -20 -109 -25 -16 -5 -46 -9 -66 -9 -20 0 -63 -9 -95 -20 -32 -11 -67 -20
-78 -20 -19 0 -127 -32 -235 -71 -30 -10 -68 -19 -85 -19 -18 0 -45 -7 -62
-16 -52 -27 -176 -74 -196 -74 -10 0 -53 -16 -96 -36 -42 -20 -93 -42 -112
-50 -70 -26 -147 -60 -181 -82 -19 -12 -40 -22 -47 -22 -12 0 -293 -141 -388
-195 -27 -16 -75 -41 -105 -57 -30 -16 -64 -37 -75 -47 -11 -10 -35 -26 -53
-35 -18 -10 -42 -26 -53 -37 -10 -10 -27 -19 -38 -19 -10 0 -25 -7 -32 -16 -7
-9 -37 -29 -65 -46 -29 -16 -55 -35 -58 -43 -3 -8 -12 -15 -20 -15 -8 0 -41
-21 -73 -47 -75 -62 -120 -93 -132 -93 -5 0 -24 -17 -42 -37 -18 -21 -44 -43
-58 -50 -14 -6 -53 -37 -86 -68 -33 -31 -76 -68 -95 -82 -46 -35 -92 -76 -151
-138 -26 -27 -60 -61 -75 -75 -15 -14 -47 -47 -73 -74 -25 -27 -82 -85 -126
-130 -44 -45 -91 -96 -105 -114 -14 -19 -50 -59 -80 -90 -30 -31 -77 -87 -105
-123 -58 -77 -166 -212 -176 -219 -3 -3 -21 -30 -38 -60 -18 -30 -54 -86 -82
-125 -27 -38 -58 -87 -70 -108 -18 -35 -56 -90 -110 -160 -11 -15 -25 -43 -30
-62 -6 -19 -14 -35 -18 -35 -4 0 -32 -47 -61 -105 -29 -58 -56 -108 -61 -111
-5 -3 -9 -12 -9 -21 0 -9 -11 -30 -24 -47 -13 -17 -27 -46 -31 -64 -4 -18 -17
-43 -29 -56 -13 -12 -26 -40 -30 -62 -4 -21 -19 -64 -33 -94 -13 -30 -28 -64
-32 -75 -4 -11 -17 -40 -28 -65 -55 -122 -73 -168 -79 -200 -3 -19 -14 -53
-24 -75 -20 -47 -80 -235 -91 -285 -4 -19 -15 -60 -24 -90 -38 -125 -45 -156
-45 -185 0 -17 -4 -35 -9 -40 -9 -9 -23 -83 -67 -345 -67 -406 -79 -565 -86
-1105 0 -38 41 -528 47 -544 2 -9 14 -83 24 -166 11 -82 27 -175 36 -205 9
-30 23 -102 31 -160 8 -58 20 -114 26 -125 6 -11 17 -47 24 -80 7 -33 28 -112
48 -175 20 -63 36 -123 36 -133 0 -10 11 -43 25 -73 14 -30 25 -63 25 -73 0
-10 11 -43 24 -74 14 -30 31 -80 39 -110 8 -31 29 -81 46 -113 17 -32 31 -61
31 -66 0 -5 9 -30 21 -55 11 -25 18 -47 15 -50 -3 -3 6 -20 19 -38 14 -17 25
-43 25 -57 0 -14 7 -32 16 -39 9 -7 32 -47 51 -89 18 -41 41 -88 50 -105 9
-16 23 -43 31 -60 8 -16 23 -39 32 -50 10 -11 21 -31 25 -44 4 -14 33 -65 64
-113 31 -49 68 -112 83 -140 15 -28 37 -61 48 -73 11 -12 20 -25 20 -29 0 -4
25 -36 55 -71 30 -34 55 -68 55 -76 0 -8 16 -32 35 -54 19 -22 35 -44 35 -48
0 -5 20 -34 45 -66 25 -31 45 -62 45 -67 0 -6 12 -22 28 -36 15 -14 43 -47 62
-73 43 -58 239 -275 249 -275 4 0 15 -14 25 -30 9 -17 28 -41 41 -53 45 -43
122 -113 188 -172 37 -33 67 -65 67 -71 0 -6 18 -24 40 -39 23 -16 44 -33 48
-39 4 -6 41 -38 82 -71 41 -32 88 -72 104 -88 29 -29 109 -92 169 -134 18 -13
37 -26 42 -30 6 -5 22 -16 36 -25 14 -9 33 -23 40 -31 16 -16 87 -64 129 -88
16 -9 44 -29 63 -45 36 -30 75 -55 148 -95 15 -8 46 -27 70 -43 24 -17 91 -54
149 -84 58 -30 110 -58 115 -62 25 -20 214 -113 266 -130 32 -11 75 -28 96
-39 37 -18 109 -52 188 -86 22 -10 51 -26 64 -36 13 -11 32 -19 43 -19 23 0
125 -32 223 -71 82 -32 278 -90 385 -114 41 -9 91 -22 110 -28 19 -6 57 -14
85 -17 71 -7 71 -29 -2 -67 -87 -46 -97 -64 -101 -193 -5 -120 -11 -131 -66
-110 -15 5 -43 10 -63 10 -32 0 -89 15 -213 56 -99 33 -154 43 -170 31 -25
-20 -30 -31 -30 -74 0 -47 19 -73 55 -73 13 0 34 -4 47 -9 30 -11 116 -35 200
-55 36 -9 87 -25 112 -36 54 -23 56 -33 31 -152 -40 -192 -49 -200 -222 -196
-111 3 -117 4 -134 28 -12 16 -16 35 -12 52 14 70 93 94 197 59 79 -26 103
-27 111 -1 6 20 -19 114 -36 136 -5 6 -51 19 -103 29 -91 18 -96 18 -161 0
-59 -16 -69 -22 -81 -51 -8 -18 -18 -35 -23 -38 -24 -15 -30 -174 -9 -231 12
-31 104 -125 123 -125 6 0 16 -5 23 -12 16 -16 81 -38 113 -38 15 0 40 7 55
15 62 32 86 5 65 -73 -13 -48 -5 -74 47 -150 42 -61 71 -67 84 -17 12 46 69
333 79 398 32 202 52 291 70 313 9 11 27 15 63 12 47 -3 51 -1 72 30 l22 32 7
-29 c8 -37 32 -58 70 -63 29 -3 30 -5 29 -53 0 -27 -11 -113 -23 -190 -13 -77
-25 -158 -27 -180 -3 -22 -11 -88 -20 -147 -8 -59 -12 -113 -7 -121 28 -45 81
-107 96 -112 28 -10 47 19 47 74 0 27 9 95 20 150 11 55 17 107 14 115 -3 7 0
33 6 57 11 39 31 167 49 304 5 39 11 52 31 62 42 22 235 -3 265 -34 9 -8 15
-33 15 -58 0 -38 -4 -47 -33 -69 -24 -18 -46 -26 -75 -26 -32 0 -45 -6 -61
-26 -26 -32 -26 -44 -2 -114 51 -147 90 -205 165 -243 96 -49 181 -46 276 8
41 24 53 3 45 -78 l-6 -68 54 -55 c31 -30 60 -54 66 -54 6 0 19 8 30 19 17 17
18 39 20 272 1 140 4 290 7 334 3 44 6 94 7 110 2 24 7 31 27 33 81 9 110 33
110 92 0 51 -17 60 -117 60 -43 0 -83 4 -89 8 -16 9 -44 79 -44 106 0 12 6 30
13 40 13 18 15 18 40 1 14 -9 32 -15 39 -13 7 2 36 27 63 57 49 53 50 54 49
115 l-2 61 227 1 c225 0 487 20 661 49 47 8 112 17 145 21 33 3 83 12 112 19
28 7 54 11 56 8 6 -5 81 12 162 37 74 23 238 60 265 60 11 0 45 11 76 25 54
24 170 59 239 72 17 3 35 9 40 13 6 4 39 17 75 30 36 12 70 25 75 29 6 5 42
18 80 31 77 25 157 60 165 70 3 4 16 11 30 14 14 4 48 18 75 31 136 63 278
131 346 166 42 21 82 39 88 39 10 0 66 34 81 50 3 3 22 14 43 25 20 11 37 23
37 27 0 5 5 8 10 8 10 0 160 88 170 99 3 3 21 14 40 24 40 20 84 49 140 92 22
17 57 43 77 58 21 15 67 50 103 78 36 27 100 75 143 107 97 70 154 119 279
236 54 50 123 114 155 143 76 68 109 100 163 162 25 29 82 91 127 139 45 48
113 128 151 177 39 50 85 106 103 126 19 20 39 43 44 51 9 14 36 51 131 178
14 19 35 50 47 69 12 19 27 42 32 50 6 9 23 39 39 66 16 28 37 59 46 70 10 11
25 34 34 50 34 61 58 101 76 120 9 11 22 35 28 53 7 19 42 89 80 155 63 114
98 183 160 317 72 158 92 205 92 222 0 7 6 23 14 34 8 11 22 47 31 79 9 33 23
69 29 80 7 11 25 61 40 110 16 50 37 117 47 150 11 33 40 134 64 225 24 91 51
188 60 216 8 28 15 71 15 96 0 25 7 67 15 94 8 27 15 64 15 82 0 18 4 41 10
51 5 10 14 65 19 122 6 57 15 124 20 149 6 25 10 68 11 95 0 28 5 66 11 85 13
44 21 769 9 865 -5 39 -11 111 -14 160 -4 50 -10 104 -15 120 -5 17 -13 75
-16 130 -4 54 -13 119 -21 145 -8 25 -14 66 -14 91 0 25 -7 68 -15 95 -26 84
-55 222 -55 262 0 20 -8 53 -18 72 -17 32 -31 78 -69 220 -8 30 -28 96 -45
145 -17 50 -33 106 -37 125 -4 19 -13 45 -19 56 -6 12 -19 44 -28 70 -8 27
-31 81 -49 119 -18 39 -40 88 -50 110 -9 22 -25 58 -35 80 -43 94 -80 184 -80
193 0 5 -9 17 -19 26 -11 10 -32 48 -46 84 -15 37 -33 74 -40 82 -7 8 -23 35
-35 60 -13 25 -33 58 -46 73 -13 16 -24 35 -24 42 0 7 -6 20 -13 27 -15 15
-58 86 -87 143 -11 22 -35 58 -55 80 -19 22 -35 45 -35 52 0 7 -13 27 -28 45
-16 18 -34 47 -40 63 -7 17 -26 45 -42 62 -17 18 -30 36 -30 41 0 5 -7 16 -17
23 -9 8 -33 36 -53 64 -21 27 -63 76 -94 107 -31 31 -56 62 -56 68 0 6 -12 23
-27 38 -16 15 -48 52 -73 82 -24 30 -59 71 -78 90 -19 19 -45 52 -58 73 -13
20 -29 37 -34 37 -8 0 -151 139 -210 204 -8 9 -40 37 -70 62 -30 25 -79 67
-109 92 -29 26 -63 54 -76 62 -12 8 -36 31 -54 52 -17 20 -51 46 -74 58 -23
12 -58 35 -77 52 -19 16 -46 38 -60 50 -13 11 -36 28 -50 37 -31 20 -53 37
-100 79 -21 17 -44 32 -52 32 -8 0 -29 12 -46 28 -50 45 -59 51 -104 73 -49
24 -51 25 -104 60 -22 15 -45 34 -53 43 -7 9 -20 16 -28 16 -16 0 -76 31 -81
42 -2 4 -60 35 -130 69 -70 34 -140 73 -155 86 -16 12 -34 23 -41 23 -7 0 -34
11 -60 25 -26 14 -53 25 -60 25 -7 0 -29 11 -48 24 -20 13 -78 38 -129 56 -52
18 -99 36 -104 41 -6 4 -51 24 -100 42 -50 19 -106 44 -125 55 -19 11 -57 23
-85 26 -47 6 -192 53 -297 97 -26 10 -62 19 -80 18 -18 0 -62 7 -98 16 -206
51 -273 66 -321 70 -30 3 -65 10 -79 15 -29 10 -194 39 -295 51 -38 4 -110 13
-160 19 -225 26 -899 47 -911 29z m636 -369 c162 -9 355 -26 525 -49 39 -5
115 -21 170 -35 55 -14 123 -28 150 -32 28 -3 70 -12 95 -19 25 -7 98 -25 162
-40 65 -14 120 -31 123 -36 4 -5 16 -9 29 -9 12 0 41 -9 64 -20 22 -11 55 -20
72 -20 17 0 45 -8 63 -17 18 -9 75 -32 127 -51 52 -19 113 -41 135 -49 22 -7
72 -29 110 -48 39 -18 111 -48 160 -65 50 -18 108 -44 130 -59 47 -33 99 -60
175 -92 30 -12 71 -35 90 -50 20 -15 60 -39 90 -55 30 -15 68 -38 83 -51 16
-13 34 -23 40 -23 13 0 126 -70 194 -119 23 -17 46 -31 51 -31 5 0 19 -11 32
-25 13 -14 27 -25 32 -25 11 0 19 -6 79 -59 25 -23 53 -41 62 -41 8 0 29 -18
46 -39 17 -21 42 -42 56 -45 13 -3 46 -28 73 -54 26 -26 65 -56 85 -67 20 -11
39 -27 42 -35 3 -9 20 -27 38 -40 71 -53 347 -326 347 -345 0 -8 5 -15 10 -15
19 0 98 -80 104 -105 4 -14 19 -31 34 -39 26 -13 52 -41 119 -126 16 -19 38
-46 50 -60 42 -49 94 -116 111 -144 9 -16 34 -50 54 -76 20 -27 44 -64 52 -84
8 -20 22 -39 31 -42 16 -7 85 -104 85 -121 0 -5 8 -18 18 -29 26 -28 82 -122
82 -137 0 -7 14 -26 30 -42 17 -16 30 -35 30 -43 0 -8 13 -36 28 -61 15 -25
47 -86 71 -136 24 -49 55 -104 67 -122 13 -17 24 -35 24 -39 0 -7 49 -127 110
-269 12 -27 23 -55 24 -62 1 -7 5 -16 9 -19 4 -4 7 -15 7 -25 0 -10 8 -25 17
-35 16 -15 30 -60 69 -218 8 -32 23 -75 33 -95 10 -20 24 -65 31 -101 8 -36
19 -79 27 -97 7 -18 13 -45 13 -60 0 -16 6 -37 13 -48 15 -22 37 -122 37 -170
0 -17 5 -36 11 -42 6 -6 12 -28 14 -49 2 -22 8 -66 15 -99 20 -109 46 -306 68
-520 9 -92 7 -680 -2 -818 -7 -100 -10 -109 -33 -124 -17 -11 -49 -18 -92 -19
-36 0 -104 -4 -151 -8 -47 -3 -139 -8 -205 -11 -222 -9 -330 -16 -345 -21 -8
-3 -132 -12 -275 -20 -143 -9 -299 -18 -347 -21 l-88 -5 -10 28 c-11 27 -8 31
57 92 37 35 94 82 127 105 33 23 90 69 127 102 93 82 178 152 214 174 17 10
48 36 70 57 43 42 135 116 218 176 137 100 165 203 136 508 -16 169 -72 512
-106 645 -8 33 -18 89 -22 125 -4 36 -13 77 -21 91 -43 76 -80 153 -80 164 0
7 -8 23 -19 36 -10 13 -29 42 -41 64 -113 197 -147 258 -172 310 -17 33 -37
68 -45 77 -17 19 -28 38 -96 170 -27 51 -54 98 -61 103 -7 6 -15 17 -18 27 -4
9 -25 46 -47 83 -23 37 -41 73 -41 80 0 8 -11 27 -25 43 -14 17 -32 47 -41 69
-9 21 -27 51 -40 66 -13 16 -24 35 -24 42 0 7 -10 26 -23 42 -12 15 -33 50
-47 76 -31 63 -286 337 -313 337 -5 0 -28 16 -51 35 -24 19 -47 35 -52 35 -5
0 -22 11 -39 25 -83 68 -137 105 -152 105 -7 0 -30 9 -52 20 -21 12 -56 24
-77 27 -22 3 -65 14 -96 24 -32 11 -97 21 -145 23 -103 5 -114 9 -133 40 -33
54 -152 175 -192 195 -24 12 -70 36 -103 53 -57 29 -64 30 -146 24 -48 -3
-113 -12 -145 -21 -32 -8 -69 -15 -82 -15 -25 0 -133 101 -166 155 -10 17 -27
39 -37 50 -39 44 -97 112 -125 150 -52 69 -67 112 -113 317 -4 20 -22 65 -38
100 -17 34 -34 73 -38 86 -4 13 -22 50 -40 82 -18 32 -37 69 -41 82 -3 13 -17
37 -31 53 -85 108 -139 171 -178 206 -47 44 -179 129 -198 129 -7 0 -25 7 -42
16 -133 69 -414 123 -579 110 -247 -19 -317 -34 -453 -92 -17 -8 -34 -14 -39
-14 -4 0 -35 -13 -68 -29 -34 -17 -72 -35 -86 -41 -42 -17 -96 -53 -162 -105
-81 -64 -298 -282 -298 -299 0 -7 -10 -24 -22 -38 -22 -23 -78 -127 -78 -142
0 -5 -6 -22 -14 -39 -56 -123 -64 -152 -80 -285 -10 -82 -11 -133 -4 -185 13
-99 37 -206 53 -236 7 -15 29 -76 49 -136 46 -140 52 -151 94 -176 34 -20 37
-20 81 -4 102 38 158 71 212 127 59 62 77 69 101 41 18 -23 108 -205 108 -221
0 -7 9 -29 20 -49 11 -21 20 -48 20 -61 0 -13 8 -37 17 -55 17 -33 35 -117 57
-271 8 -52 19 -92 27 -97 16 -10 84 -3 111 12 9 5 36 9 60 9 24 0 86 5 138 12
52 6 107 8 122 5 23 -6 26 -11 19 -30 -9 -25 -89 -91 -141 -115 -19 -10 -49
-27 -67 -39 -17 -13 -34 -23 -38 -23 -3 0 -32 -17 -63 -39 -31 -21 -90 -55
-130 -76 -39 -20 -75 -41 -78 -46 -8 -14 -81 -59 -95 -59 -6 0 -42 30 -80 67
-58 55 -79 86 -129 185 -33 66 -60 128 -60 139 0 11 -11 41 -24 67 -13 26 -26
59 -29 73 -4 14 -17 41 -30 60 -12 19 -30 55 -40 80 -12 31 -46 74 -110 140
-131 132 -161 159 -176 159 -8 0 -40 13 -72 30 -73 37 -151 50 -300 50 -129 0
-235 -19 -314 -55 -27 -13 -76 -32 -108 -42 -49 -15 -74 -33 -150 -105 -51
-48 -95 -88 -99 -88 -4 0 -16 -17 -27 -37 -10 -21 -31 -49 -45 -62 -14 -14
-26 -30 -26 -36 0 -7 -11 -29 -25 -49 -14 -20 -25 -42 -25 -48 0 -6 -13 -38
-29 -72 -35 -75 -48 -106 -71 -171 -10 -27 -28 -75 -40 -105 -12 -30 -28 -77
-37 -105 -8 -27 -26 -75 -40 -105 -14 -30 -34 -75 -45 -100 -10 -25 -30 -66
-44 -93 -13 -26 -24 -52 -24 -57 0 -6 -13 -29 -30 -52 -16 -22 -30 -46 -30
-53 0 -12 -7 -21 -78 -104 -129 -151 -186 -201 -230 -201 -10 0 -27 -10 -38
-21 -10 -12 -41 -36 -69 -53 -52 -34 -163 -140 -227 -217 -20 -24 -52 -64 -72
-87 -20 -24 -36 -50 -36 -57 0 -7 -7 -19 -16 -26 -9 -8 -25 -34 -36 -59 -11
-25 -25 -52 -32 -60 -7 -8 -18 -35 -26 -60 -7 -25 -18 -54 -25 -65 -10 -17
-53 -148 -72 -220 -3 -11 -11 -29 -18 -40 -7 -12 -18 -55 -24 -95 -6 -41 -17
-102 -25 -135 -70 -293 -80 -376 -67 -555 11 -142 24 -205 47 -231 8 -8 14
-22 14 -29 0 -13 67 -160 91 -200 5 -8 14 -26 19 -40 6 -14 14 -32 20 -40 5
-8 23 -44 40 -80 17 -36 39 -78 48 -95 8 -16 30 -57 47 -90 18 -34 37 -70 43
-80 95 -176 114 -251 70 -279 -26 -16 -233 -41 -274 -33 -15 2 -74 0 -133 -5
-58 -5 -162 -11 -231 -13 -69 -2 -195 -8 -280 -14 -370 -25 -521 -34 -610 -37
-168 -6 -472 -24 -575 -34 -55 -6 -146 -15 -203 -21 -127 -14 -134 -9 -155 94
-8 40 -20 97 -26 127 -7 30 -16 80 -20 110 -4 30 -15 105 -24 165 -9 61 -21
178 -27 260 -6 83 -16 177 -21 210 -13 69 -3 546 12 613 5 23 7 53 4 65 -3 12
-1 56 5 97 6 41 15 116 20 165 15 140 51 356 66 399 8 21 14 50 14 65 0 24 21
121 54 246 8 28 24 88 36 135 12 47 28 99 35 116 24 57 75 215 75 232 0 10 8
33 19 52 10 19 31 67 46 105 14 39 42 102 60 140 18 39 44 97 58 130 32 76
108 223 134 261 11 16 34 58 52 94 34 70 35 71 103 176 26 40 56 91 69 115 12
24 28 48 35 52 8 4 20 22 28 40 8 18 27 46 43 62 15 17 35 43 43 57 36 64 270
362 363 463 131 140 375 382 407 402 14 9 43 37 65 63 22 26 51 54 65 63 14 9
45 34 68 56 24 23 49 41 56 41 7 0 25 14 42 31 24 25 138 108 211 154 9 6 23
16 32 23 9 7 41 29 71 49 30 19 75 52 100 73 25 20 61 45 80 55 19 9 42 23 50
30 8 7 31 18 50 24 19 6 47 21 62 34 15 13 98 58 185 101 87 43 165 82 173 86
77 46 127 70 142 70 10 0 26 4 36 9 56 31 144 71 155 71 7 0 45 16 84 35 39
19 78 35 87 35 8 0 17 4 20 9 3 5 23 12 43 15 21 4 49 11 63 15 26 9 208 65
323 100 37 12 86 21 109 21 23 0 49 6 57 14 9 8 66 24 126 35 61 11 130 24
155 30 86 19 166 31 203 31 20 0 71 9 113 21 57 16 90 19 133 14 39 -4 76 -2
117 9 32 8 68 15 79 15 141 1 480 13 485 17 2 3 18 3 35 -1 16 -4 109 -11 205
-15z m883 -1097 c3 -5 8 -105 12 -223 4 -118 8 -216 9 -217 1 -2 29 2 62 7 32
6 84 10 114 10 30 0 98 5 150 12 96 11 96 11 153 -16 31 -16 57 -32 57 -36 0
-5 22 -30 50 -56 27 -26 52 -56 55 -65 3 -10 25 -29 48 -42 120 -72 163 -203
137 -421 -15 -122 -47 -205 -125 -322 -63 -93 -169 -214 -189 -214 -6 0 -32
19 -57 43 -55 50 -107 91 -168 132 -25 17 -80 66 -124 109 -66 67 -83 79 -110
78 -36 -1 -64 -32 -85 -97 -8 -22 -26 -53 -40 -68 -46 -49 -83 -59 -240 -61
-194 -3 -199 -2 -212 43 -5 20 -10 57 -10 83 0 65 -19 82 -79 73 -25 -4 -68
-9 -96 -11 -111 -8 -172 -16 -212 -26 -77 -19 -88 -10 -108 89 -9 49 -21 96
-26 105 -5 10 -9 26 -9 37 0 10 -7 32 -15 47 -8 16 -15 36 -15 44 0 8 -11 35
-25 59 -14 23 -25 51 -25 60 0 9 -30 70 -66 135 -64 115 -65 120 -59 170 4 28
16 62 26 75 11 13 19 32 19 42 0 11 3 19 8 19 4 0 18 17 32 38 64 97 191 242
212 242 4 0 33 17 65 39 80 53 123 65 204 58 96 -8 176 -55 211 -123 54 -106
53 -105 223 -129 61 -9 123 -20 138 -25 57 -19 67 6 67 170 0 52 3 105 6 118
6 21 28 30 37 15z m1329 -683 c18 -11 39 -20 46 -20 23 0 100 -72 133 -124 17
-28 41 -64 52 -81 27 -38 26 -86 -2 -155 -13 -30 -28 -71 -34 -90 -6 -19 -16
-42 -23 -50 -14 -17 -80 -172 -120 -284 -30 -82 -50 -122 -65 -132 -6 -4 -111
-5 -233 -3 -121 2 -247 3 -280 4 -86 0 -93 18 -35 87 62 74 85 109 142 223 17
33 39 73 50 88 24 36 56 159 68 262 6 61 5 93 -7 137 -19 77 -12 98 44 130 42
24 58 27 139 28 75 0 99 -4 125 -20z m530 -300 c24 -5 74 -17 111 -25 38 -9
85 -26 105 -39 20 -13 53 -29 72 -35 20 -6 49 -23 66 -39 39 -35 101 -82 109
-82 6 0 13 -6 135 -116 47 -42 89 -84 94 -93 5 -8 34 -40 65 -71 57 -56 66
-70 131 -195 59 -111 92 -168 117 -198 13 -16 26 -41 29 -55 4 -15 16 -43 29
-62 66 -104 85 -138 85 -153 0 -10 4 -17 9 -17 4 0 26 -34 47 -76 22 -41 47
-84 56 -94 10 -10 33 -52 52 -92 19 -40 51 -95 70 -122 20 -27 36 -53 36 -58
0 -5 15 -32 33 -61 18 -29 50 -88 72 -132 22 -44 43 -81 47 -83 5 -2 8 -14 8
-27 0 -16 -13 -32 -48 -54 -27 -17 -53 -31 -59 -31 -5 0 -18 -9 -28 -20 -10
-11 -27 -22 -39 -26 -11 -4 -34 -18 -51 -31 -16 -13 -61 -45 -100 -70 -38 -26
-72 -49 -75 -52 -7 -9 -38 -27 -95 -57 -27 -14 -52 -29 -55 -34 -12 -18 -152
-101 -164 -97 -13 5 -82 116 -110 177 -9 19 -24 49 -34 65 -10 17 -38 68 -62
115 -24 47 -47 87 -50 90 -3 3 -14 25 -25 50 -10 25 -24 52 -31 60 -7 8 -30
50 -52 93 -22 42 -52 93 -66 112 -15 19 -35 54 -45 78 -21 49 -57 65 -100 44
-38 -18 -43 -62 -37 -312 6 -236 11 -448 21 -965 3 -162 8 -342 11 -400 8
-161 7 -232 -5 -262 -9 -25 -15 -28 -58 -28 -27 0 -91 -4 -143 -10 -122 -12
-447 -37 -665 -50 -93 -6 -199 -13 -235 -17 -36 -4 -92 -7 -125 -8 -70 -2
-224 -12 -380 -26 -60 -5 -153 -9 -205 -9 -52 0 -111 -5 -130 -10 -19 -6 -93
-13 -165 -15 -71 -3 -175 -10 -230 -16 -173 -18 -307 -26 -328 -21 -19 5 -19
11 -13 111 4 58 9 117 11 131 4 23 10 67 35 270 5 41 14 118 20 170 6 52 15
124 20 160 18 129 38 335 33 343 -10 17 -56 -5 -116 -53 -33 -27 -73 -52 -88
-55 -54 -12 -71 -45 -86 -167 -9 -67 -21 -120 -29 -129 -31 -34 -205 -48 -301
-24 -70 18 -137 47 -148 65 -7 11 -13 557 -16 1342 l-2 507 27 36 c15 19 46
45 69 56 23 12 53 29 67 39 14 10 50 28 80 41 30 13 62 30 70 39 8 10 35 28
60 41 25 13 79 47 120 74 105 69 129 75 250 68 l101 -6 18 -36 c11 -20 29 -74
41 -121 13 -47 29 -96 37 -110 7 -14 24 -65 36 -115 l22 -90 50 -8 c28 -4 100
-5 160 -2 61 3 154 6 208 6 132 1 131 -1 129 202 -1 92 1 146 7 137 8 -13 16
-121 25 -340 7 -145 27 -530 32 -605 3 -44 8 -125 10 -180 2 -55 8 -154 14
-220 5 -66 14 -217 20 -335 6 -118 13 -244 16 -280 2 -36 7 -110 10 -165 7
-123 30 -181 76 -189 7 -1 39 -12 71 -24 53 -20 65 -21 122 -11 57 10 69 16
104 54 49 53 55 75 47 168 -3 39 -6 93 -5 118 0 64 -14 73 -102 65 -93 -10
-99 -4 -99 91 0 105 6 113 85 113 58 0 66 3 81 25 15 23 15 39 5 148 -6 67
-14 178 -16 247 -3 69 -11 213 -17 320 -6 107 -13 231 -14 275 -2 44 -8 143
-13 220 -6 77 -12 187 -15 245 -3 58 -8 131 -12 162 -8 77 4 83 150 74 61 -4
129 -7 151 -6 87 4 123 2 183 -10 55 -11 69 -10 107 5 49 18 69 49 115 175 13
36 27 70 32 77 5 7 20 40 33 75 12 35 33 90 45 123 12 33 28 67 35 75 7 8 20
39 29 68 8 29 19 58 23 65 4 6 15 32 24 57 23 66 65 82 161 60z m-4140 -425
c27 -4 80 -26 165 -68 68 -33 161 -134 205 -222 49 -97 65 -165 72 -295 12
-208 -13 -340 -97 -518 -13 -26 -124 -138 -182 -181 -22 -16 -54 -41 -71 -55
-18 -14 -36 -26 -40 -26 -5 0 -31 -12 -58 -26 -92 -49 -125 -56 -239 -55 -107
2 -109 2 -194 46 -47 24 -95 55 -108 67 -13 13 -51 50 -85 83 -100 97 -129
150 -157 284 -37 184 -32 353 13 479 18 47 27 51 52 21 9 -11 25 -30 34 -41
17 -20 71 -37 120 -38 34 0 50 27 42 70 -6 25 -21 40 -80 78 -41 26 -76 52
-78 58 -2 5 -2 23 1 38 5 24 24 48 124 158 14 15 33 28 41 28 9 0 21 7 29 16
19 23 126 70 210 93 71 19 184 21 281 6z m2437 -120 c43 -40 49 -51 49 -88 1
-23 4 -96 6 -162 6 -139 -1 -159 -56 -156 -18 1 -37 2 -43 1 -56 -7 -172 -10
-191 -6 -29 8 -40 30 -89 189 -46 145 -44 162 23 170 27 3 66 13 88 23 88 38
124 56 129 65 12 19 37 8 84 -36z m526 -887 c2 -2 5 -41 6 -86 3 -94 -5 -109
-64 -119 -33 -5 -38 -3 -47 21 -5 15 -10 58 -10 96 0 59 3 71 21 84 18 12 83
15 94 4z m-3863 -105 c15 -17 53 -100 98 -213 12 -30 26 -59 31 -64 5 -6 9
-17 9 -25 0 -18 31 -83 57 -122 10 -14 36 -53 58 -85 22 -32 44 -66 50 -75 36
-57 161 -213 185 -231 26 -19 30 -28 30 -71 0 -54 -36 -245 -50 -262 -7 -9
-17 -80 -40 -285 -8 -70 -7 -77 13 -98 66 -71 180 -70 252 3 28 27 34 45 55
155 13 69 25 132 26 140 2 8 10 53 18 100 8 47 18 111 21 143 6 57 10 62 87
145 44 48 95 105 113 127 71 90 236 407 280 540 9 28 23 57 30 65 8 9 21 36
30 60 28 80 48 87 120 41 71 -45 141 -132 207 -258 21 -41 43 -81 48 -91 20
-34 50 -123 50 -146 0 -13 9 -43 20 -67 11 -24 20 -57 20 -74 0 -16 7 -55 15
-85 31 -115 14 -464 -26 -541 -5 -9 -25 -20 -46 -24 -21 -4 -42 -10 -48 -15
-5 -4 -74 -11 -152 -15 l-142 -8 -10 24 c-11 30 -41 195 -41 230 0 40 -32 63
-77 56 -47 -8 -63 -29 -63 -81 -1 -23 -3 -63 -5 -91 -2 -27 -7 -97 -10 -155
-9 -172 -30 -296 -57 -338 -66 -104 -158 -344 -158 -412 0 -16 -11 -83 -24
-147 -14 -65 -28 -150 -31 -190 -10 -107 -3 -104 -278 -126 -128 -10 -279 -20
-337 -21 -106 -3 -290 -17 -539 -41 -98 -10 -140 -10 -158 -2 -18 8 -33 8 -57
-1 -48 -17 -123 -16 -130 3 -3 9 -1 93 4 188 5 94 12 271 15 392 8 322 13 441
26 625 19 282 12 333 -48 342 -49 6 -60 -2 -86 -60 -46 -102 -147 -182 -230
-182 -24 0 -47 -4 -53 -10 -10 -10 -118 25 -182 58 -37 19 -76 65 -97 115 -12
30 -11 40 15 117 16 47 30 94 30 106 0 11 16 61 35 110 19 49 35 94 35 99 0 6
8 26 18 45 110 207 137 249 220 336 23 25 42 50 42 54 0 5 21 24 48 41 26 18
51 39 55 47 10 16 189 101 262 125 129 42 347 94 406 96 14 1 33 -7 41 -16z
m5475 -354 c12 -24 33 -69 48 -99 30 -63 50 -101 82 -150 12 -19 25 -48 29
-65 4 -16 24 -52 44 -80 20 -27 42 -66 48 -85 7 -19 25 -49 40 -65 16 -17 31
-45 35 -63 4 -17 32 -65 64 -106 32 -40 65 -84 73 -96 8 -12 25 -36 38 -53 39
-54 28 -91 -63 -227 -20 -30 -43 -62 -50 -70 -7 -8 -27 -41 -44 -73 -17 -32
-40 -70 -51 -84 -11 -14 -20 -31 -20 -39 0 -7 -4 -14 -8 -16 -4 -1 -42 -53
-84 -114 -42 -61 -84 -116 -92 -123 -17 -14 -87 0 -103 22 -12 15 -47 1611
-36 1630 10 16 29 0 50 -44z m-1562 -36 c14 -14 17 -30 13 -91 -3 -48 -10 -77
-19 -83 -21 -13 -75 -11 -86 4 -17 20 -26 156 -12 173 16 20 84 18 104 -3z
m2781 -273 c39 -137 47 -174 55 -245 4 -38 15 -115 24 -170 35 -219 45 -390
26 -451 -5 -16 -12 -41 -15 -55 -3 -15 -24 -38 -53 -59 -26 -18 -69 -52 -95
-74 -26 -23 -64 -54 -84 -71 -21 -16 -58 -48 -83 -71 -25 -22 -66 -55 -90 -74
-43 -33 -100 -82 -153 -131 -15 -14 -55 -46 -89 -70 -34 -24 -85 -67 -113 -95
-28 -28 -80 -73 -116 -100 -79 -59 -154 -121 -229 -191 -106 -98 -133 -110
-336 -142 -186 -29 -326 -69 -385 -111 -14 -10 -36 -21 -50 -25 -14 -4 -78
-34 -143 -67 -170 -85 -183 -73 -83 75 35 52 70 106 78 120 45 84 158 194 207
202 20 4 54 13 77 21 36 13 184 52 338 90 78 19 122 48 146 94 10 20 34 57 52
81 19 24 51 73 73 109 21 36 48 76 60 90 11 14 29 41 39 60 10 19 28 45 39 58
23 25 59 82 80 127 8 17 22 37 31 45 10 8 22 25 27 37 9 25 124 199 146 221 7
7 13 17 13 22 0 5 13 24 28 42 16 18 32 45 36 60 6 25 -7 77 -22 88 -13 9 -42
59 -42 72 0 8 -23 44 -51 81 -28 37 -49 75 -47 84 3 19 63 64 118 91 19 9 51
29 71 44 19 15 60 40 90 56 173 92 315 173 333 192 13 12 31 20 46 18 21 -3
27 -13 46 -78z m-7911 -706 c9 -14 38 -35 63 -46 26 -11 63 -27 82 -36 64 -31
274 -11 363 33 16 8 34 12 40 8 6 -4 7 -42 3 -107 -3 -56 -9 -144 -12 -196 -3
-52 -9 -158 -14 -235 -5 -77 -14 -257 -20 -400 -6 -147 -15 -269 -21 -282 -9
-17 -24 -22 -80 -28 -37 -4 -72 -4 -78 -1 -5 4 -22 32 -36 64 -15 31 -33 68
-40 82 -57 109 -98 187 -104 195 -4 6 -18 37 -31 70 -13 33 -31 69 -40 80 -25
31 -118 225 -141 297 -16 50 -20 88 -20 183 1 113 22 312 36 335 11 18 32 11
50 -16z m2856 -94 c21 -12 25 -54 10 -107 -5 -18 -12 -96 -16 -175 -4 -79 -11
-153 -16 -166 -5 -13 -9 -37 -9 -53 0 -34 -26 -140 -46 -186 -8 -17 -14 -34
-14 -37 0 -20 -80 -128 -130 -176 -57 -55 -140 -120 -154 -120 -4 0 -19 -9
-33 -20 -28 -22 -88 -27 -99 -8 -22 35 -41 242 -24 253 6 3 10 24 10 46 0 45
32 179 56 237 9 20 44 93 78 162 46 95 65 145 76 210 17 98 24 104 133 122 91
15 152 25 155 27 2 0 12 -4 23 -9z m440 -21 c51 -20 222 -29 296 -15 64 13 65
7 37 -264 -13 -129 -28 -265 -34 -303 -5 -37 -10 -93 -11 -125 0 -31 -4 -81
-8 -111 -7 -47 -14 -59 -58 -100 -28 -26 -61 -52 -74 -58 -13 -6 -62 -44 -109
-83 -47 -40 -119 -97 -160 -128 -41 -30 -82 -62 -90 -71 -14 -15 -103 -85
-154 -121 -11 -8 -56 -43 -98 -77 -43 -35 -81 -63 -85 -63 -4 0 -23 -16 -41
-34 -18 -19 -59 -52 -90 -73 -31 -21 -62 -43 -68 -48 -39 -37 -45 -107 -12
-142 31 -33 52 -29 93 22 21 25 54 55 74 67 20 13 59 43 87 68 150 132 179
153 196 143 4 -2 1 -21 -7 -43 -8 -22 -21 -70 -31 -107 -9 -38 -29 -108 -45
-158 -16 -49 -29 -99 -29 -111 0 -11 -4 -24 -9 -30 -6 -5 -19 -44 -31 -87 -11
-43 -24 -85 -29 -95 -5 -9 -14 -37 -21 -62 -7 -25 -18 -63 -26 -85 -8 -23 -14
-48 -14 -57 0 -63 -40 -83 -185 -93 -49 -3 -107 -8 -127 -11 -49 -7 -78 21
-78 74 0 52 -14 62 -86 62 -70 0 -69 1 -79 -84 -4 -31 -11 -59 -16 -62 -14 -8
-184 -25 -299 -29 -58 -2 -163 -9 -235 -15 -71 -6 -202 -15 -290 -19 -88 -5
-243 -16 -345 -25 -102 -9 -259 -21 -350 -27 -163 -10 -615 -36 -781 -45 -103
-6 -114 1 -98 62 6 21 22 60 35 86 13 26 24 52 24 58 0 15 69 191 84 215 7 11
16 34 19 50 7 42 31 103 45 117 7 7 12 22 12 34 0 13 9 38 19 56 11 18 31 67
45 108 29 89 94 252 105 263 13 13 320 34 641 43 85 2 214 8 285 13 72 5 146
9 165 9 19 0 94 4 165 11 72 6 193 13 270 16 77 3 158 7 180 10 22 3 46 2 53
-3 26 -17 14 -29 -178 -174 -93 -71 -124 -101 -156 -156 -43 -73 -18 -94 78
-66 44 14 66 26 76 44 8 15 40 44 70 66 30 21 71 55 91 74 61 58 151 133 192
161 21 14 65 50 97 80 79 73 149 130 186 153 17 10 45 30 63 45 18 14 44 35
58 46 14 11 55 48 92 83 36 34 72 62 79 62 7 0 17 6 21 13 4 7 28 27 53 44 25
17 69 54 99 82 29 28 61 53 70 56 22 8 70 73 77 105 3 14 17 70 30 125 25 99
41 168 69 295 60 271 79 346 93 357 17 14 47 10 113 -18z m5402 -1147 c-1 -46
-10 -106 -18 -135 -9 -29 -20 -86 -24 -127 -9 -84 -39 -230 -51 -245 -4 -5
-15 -44 -25 -85 -9 -41 -23 -95 -30 -120 -7 -25 -16 -60 -20 -79 -4 -19 -14
-41 -21 -49 -8 -7 -14 -24 -14 -37 0 -41 -21 -74 -54 -85 -17 -5 -108 -12
-201 -14 -94 -3 -224 -10 -290 -15 -66 -6 -192 -13 -280 -16 -155 -6 -254 -13
-455 -34 -52 -6 -143 -11 -202 -11 -130 0 -130 0 -78 113 16 34 32 76 35 92 4
17 20 55 35 85 67 133 128 285 141 349 5 25 14 75 20 111 5 36 15 79 20 96 5
17 9 62 9 101 0 57 4 73 20 88 21 19 18 18 375 29 94 3 202 10 240 15 39 6
124 13 190 16 207 9 277 13 365 24 47 6 120 10 163 10 44 0 82 2 85 6 3 3 20
5 37 3 l30 -3 -2 -83z m-2941 -151 c-1 -13 -16 -40 -32 -61 -17 -21 -30 -42
-30 -47 0 -5 -18 -32 -39 -61 -48 -63 -55 -83 -47 -128 5 -25 16 -38 38 -50
31 -16 33 -15 122 31 50 26 98 50 106 54 104 54 248 117 258 114 20 -7 15 -21
-46 -127 -33 -56 -72 -128 -89 -161 -43 -88 -104 -198 -119 -215 -7 -8 -29
-49 -49 -90 -61 -127 -90 -173 -113 -181 -13 -5 -77 -11 -143 -14 -66 -2 -141
-7 -167 -10 -26 -4 -126 -10 -222 -16 -96 -5 -202 -11 -235 -14 -33 -2 -127
-9 -210 -15 -82 -6 -341 -24 -575 -40 -490 -35 -615 -42 -687 -40 -29 1 -78
-4 -110 -9 -32 -6 -112 -13 -178 -16 -66 -2 -174 -9 -240 -14 -74 -6 -124 -6
-129 0 -14 13 56 296 89 359 7 14 20 57 28 97 8 39 22 84 30 100 9 15 30 82
47 148 18 66 38 132 46 147 8 15 14 39 14 53 0 14 7 39 15 54 14 28 16 28 152
39 203 17 275 21 513 32 281 13 372 19 505 30 61 5 160 9 220 10 61 0 205 8
320 16 116 8 294 17 396 20 102 2 201 6 220 9 19 3 95 8 168 11 74 2 137 7
140 10 13 13 36 -4 33 -25z m-5754 -328 c-3 -21 -19 -67 -36 -103 -17 -36 -34
-78 -38 -95 -4 -16 -16 -43 -26 -60 -10 -16 -18 -38 -18 -48 0 -11 -6 -31 -14
-45 -8 -15 -35 -83 -61 -152 -26 -69 -53 -138 -61 -153 -8 -16 -14 -33 -14
-37 0 -5 -15 -42 -33 -82 -18 -40 -44 -106 -57 -145 -29 -93 -45 -107 -107
-100 -26 3 -74 1 -107 -3 -67 -9 -236 -17 -535 -26 -107 -3 -198 -7 -203 -10
-10 -6 -238 -25 -372 -30 -118 -5 -138 2 -150 52 -4 13 -10 24 -15 24 -5 0
-17 26 -26 58 -9 31 -24 69 -35 83 -10 14 -30 57 -45 95 -15 38 -33 83 -40 99
-7 17 -32 84 -54 150 -22 66 -47 140 -55 165 -52 154 -72 253 -54 268 11 8
145 18 383 27 28 1 104 7 170 13 66 6 176 14 245 17 69 3 175 8 235 12 61 3
146 7 190 9 188 7 462 26 485 33 14 4 81 9 150 10 69 1 127 5 129 7 2 2 42 4
89 4 l85 0 -5 -37z m8393 -623 c19 -11 26 -54 10 -64 -4 -3 -23 -43 -40 -88
-18 -46 -49 -121 -71 -168 -21 -47 -41 -96 -44 -110 -3 -14 -12 -34 -21 -45
-16 -20 -42 -67 -112 -205 -21 -41 -55 -100 -76 -131 -20 -31 -37 -61 -37 -67
0 -5 -15 -32 -32 -60 -18 -27 -67 -102 -108 -167 -41 -64 -94 -137 -117 -163
-24 -26 -43 -54 -43 -63 0 -8 -14 -28 -31 -45 -17 -16 -39 -46 -50 -66 -10
-20 -25 -41 -32 -45 -7 -4 -28 -28 -47 -53 -19 -25 -40 -51 -48 -58 -7 -8 -25
-30 -40 -49 -15 -20 -43 -52 -63 -72 -20 -20 -56 -61 -80 -91 -66 -81 -376
-380 -468 -450 -18 -14 -40 -33 -49 -42 -9 -10 -36 -30 -59 -45 -24 -15 -43
-30 -43 -34 0 -4 -16 -19 -36 -34 -27 -20 -39 -24 -47 -16 -8 8 -12 93 -14
269 -4 359 -27 1273 -34 1362 -6 69 26 189 79 295 16 33 41 92 55 130 14 39
32 84 41 100 8 17 30 63 47 103 26 58 37 73 58 78 14 3 42 9 61 14 19 5 44 7
55 4 11 -3 90 -1 177 5 111 7 166 7 192 -1 28 -9 42 -8 62 3 15 7 56 14 93 16
36 1 120 6 186 11 66 5 174 13 240 16 66 3 154 8 195 11 41 3 115 8 165 11 49
3 92 7 94 10 6 6 10 5 32 -6z m-2119 -299 c74 -9 116 -47 144 -129 16 -48 19
-87 19 -252 1 -107 4 -330 8 -495 4 -165 9 -392 11 -505 2 -113 7 -212 10
-221 4 -9 3 -34 -2 -56 -5 -22 -6 -66 -1 -100 5 -34 10 -193 13 -355 5 -339 6
-331 -83 -371 -111 -49 -126 -56 -151 -71 -24 -15 -279 -137 -388 -186 -64
-29 -83 -22 -95 36 -5 21 -19 83 -33 137 -13 54 -24 106 -24 117 0 11 -6 39
-14 62 -7 24 -23 88 -36 143 -12 55 -28 120 -36 145 -7 25 -17 72 -20 105 -4
33 -11 68 -16 78 -5 10 -13 39 -18 65 -5 26 -18 85 -30 132 -30 120 -46 184
-65 265 -9 39 -28 105 -41 147 -12 42 -26 100 -30 130 -3 29 -17 86 -31 126
-14 40 -23 75 -20 78 3 3 -1 24 -9 47 -8 23 -17 80 -20 127 -4 47 -10 92 -15
102 -15 29 25 288 55 346 7 15 16 39 20 54 3 15 12 33 19 40 7 7 23 35 37 61
14 27 41 64 61 82 21 18 41 41 47 51 5 9 31 26 58 36 42 17 82 20 288 23 131
2 241 7 244 10 7 7 72 5 144 -4z m-2979 -64 c56 -2 103 -9 109 -15 7 -7 20
-12 29 -12 10 0 39 -11 66 -24 26 -13 73 -29 103 -36 30 -7 62 -18 70 -25 8
-7 54 -32 102 -54 48 -23 90 -46 93 -51 3 -5 47 -31 98 -59 51 -27 104 -62
117 -76 23 -24 24 -28 9 -53 -8 -15 -33 -40 -56 -57 -23 -16 -42 -34 -42 -39
-1 -5 -39 -48 -85 -95 -145 -147 -155 -159 -162 -187 -5 -17 -1 -44 11 -73 9
-25 21 -62 25 -81 8 -33 25 -90 84 -275 15 -44 26 -89 26 -99 0 -11 7 -27 16
-37 8 -9 17 -33 18 -52 2 -19 13 -50 25 -70 11 -19 21 -44 21 -56 0 -12 5 -29
10 -39 6 -9 19 -48 29 -87 25 -91 45 -156 70 -230 11 -33 28 -87 36 -120 9
-33 20 -69 25 -80 16 -36 68 -199 84 -262 9 -34 26 -84 37 -110 12 -26 32 -88
45 -138 14 -49 40 -130 59 -180 18 -49 41 -115 50 -145 8 -30 25 -85 37 -122
32 -101 40 -94 -185 -159 -169 -49 -193 -48 -238 14 -17 23 -34 49 -37 57 -3
8 -23 38 -44 66 -21 28 -38 55 -38 60 0 6 -20 38 -45 72 -25 34 -45 66 -45 72
0 5 -4 10 -9 10 -5 0 -21 21 -36 46 -15 26 -33 54 -41 63 -49 60 -89 116 -223
321 -41 63 -89 133 -105 155 -17 21 -36 48 -42 60 -19 34 -123 196 -147 229
-32 43 -115 179 -144 235 -86 169 -121 232 -136 249 -9 10 -24 41 -33 68 -9
27 -33 83 -54 124 -20 41 -41 91 -45 110 -4 19 -18 56 -31 82 -13 26 -24 56
-24 66 0 11 -6 35 -14 53 -20 48 -46 278 -46 402 0 122 22 218 75 333 36 78
93 172 117 191 44 37 201 75 278 68 19 -2 79 -6 133 -8z m2005 -39 c18 -18 15
-36 -17 -103 -93 -193 -114 -291 -107 -518 4 -138 9 -180 25 -222 13 -32 31
-105 43 -175 6 -36 20 -90 30 -120 11 -30 24 -77 28 -105 9 -54 51 -229 75
-311 8 -28 15 -60 15 -72 0 -12 7 -47 16 -79 50 -181 67 -249 89 -348 31 -143
54 -233 70 -270 7 -16 16 -52 20 -80 4 -27 16 -84 26 -127 25 -100 24 -117 -4
-127 -13 -5 -57 -25 -98 -44 -120 -56 -146 -67 -160 -67 -7 0 -20 -6 -28 -14
-9 -8 -32 -19 -51 -24 -19 -6 -80 -27 -135 -47 -55 -20 -113 -40 -130 -45 -16
-4 -64 -20 -105 -35 -41 -15 -91 -31 -110 -35 -19 -5 -61 -15 -93 -24 -77 -21
-93 -20 -112 7 -12 18 -59 156 -88 262 -3 11 -22 66 -41 123 -20 57 -36 109
-36 117 0 18 -28 110 -56 180 -13 33 -32 94 -43 137 -11 42 -27 90 -35 107 -9
16 -21 54 -27 83 -6 29 -18 69 -26 88 -9 19 -22 56 -29 82 -8 26 -20 69 -27
96 -8 26 -21 61 -30 79 -10 18 -22 56 -28 85 -13 61 -43 157 -58 186 -13 25
-51 166 -51 191 0 10 -7 24 -15 31 -8 7 -15 21 -15 31 0 10 -18 71 -39 136
-22 65 -42 139 -46 166 l-7 47 63 64 c88 88 263 275 293 311 13 17 33 39 43
51 10 12 56 33 103 48 47 15 99 33 115 41 17 7 48 17 70 23 47 12 217 69 262
88 17 8 38 14 46 14 9 0 19 5 22 10 3 6 19 10 35 10 30 0 80 18 91 33 3 5 51
20 105 33 54 14 103 30 109 35 13 13 39 11 53 -3z m-5171 -104 c3 -8 -6 -45
-20 -82 -15 -37 -38 -105 -53 -152 -15 -47 -44 -134 -65 -193 -22 -60 -39
-115 -39 -123 0 -8 -13 -49 -29 -92 -16 -42 -44 -124 -61 -182 -18 -58 -38
-112 -45 -120 -8 -8 -16 -33 -20 -55 -9 -57 -34 -134 -56 -177 -10 -20 -19
-49 -19 -63 0 -14 -6 -38 -14 -53 -8 -15 -18 -46 -21 -67 -4 -22 -13 -51 -20
-65 -7 -14 -30 -78 -50 -143 -21 -64 -43 -123 -49 -131 -22 -27 -69 2 -179
109 -59 58 -112 105 -117 105 -6 0 -10 5 -10 11 0 7 -24 35 -52 64 -78 79
-220 232 -273 295 -25 30 -59 71 -75 90 -29 33 -79 102 -172 235 -23 33 -48
66 -56 74 -12 13 -104 146 -137 199 -5 9 -30 48 -55 86 -25 39 -64 108 -87
154 -23 46 -49 93 -58 105 -20 29 -19 63 3 72 28 11 312 27 385 21 38 -3 80
-1 94 5 14 5 84 12 157 14 72 3 149 7 171 10 22 3 90 7 150 9 61 3 119 7 130
10 11 4 103 8 205 10 102 3 244 11 315 19 181 20 214 20 222 1z m2048 -3374
c106 -22 338 -51 529 -65 110 -9 203 -18 208 -21 14 -9 9 -22 -23 -59 -17 -19
-37 -58 -45 -88 -12 -46 -11 -59 2 -107 29 -101 29 -107 -1 -114 -39 -10 -312
10 -480 35 -111 17 -131 30 -144 99 -6 32 -18 63 -25 69 -8 7 -19 31 -25 55
-6 23 -20 54 -31 68 -11 15 -20 31 -20 36 0 5 -7 15 -15 22 -9 7 -30 31 -47
53 l-32 40 49 -6 c28 -4 73 -11 100 -17z m-164 -148 c64 -43 109 -112 116
-177 l6 -55 -30 0 c-17 0 -44 -5 -61 -11 -27 -9 -36 -7 -69 15 -21 14 -46 26
-57 26 -11 0 -30 10 -43 22 -37 34 -29 133 14 180 21 23 90 23 124 0z m809
-461 l75 -6 2 -125 c1 -69 0 -135 -3 -148 -3 -17 -23 -32 -67 -53 -34 -16 -69
-29 -77 -29 -9 0 -26 -7 -38 -16 -20 -14 -33 -14 -85 -5 -90 15 -127 70 -59
86 15 3 47 24 70 45 38 35 45 47 51 96 4 30 4 78 0 106 -10 62 -5 72 30 62 14
-4 60 -10 101 -13z"/>
<path d="M8335 11918 c-11 -6 -39 -29 -61 -52 -23 -23 -59 -52 -79 -66 -63
-41 -95 -77 -95 -103 0 -31 22 -40 69 -28 20 5 76 9 125 10 120 1 121 2 109
125 -9 85 -23 127 -42 126 -3 0 -15 -6 -26 -12z"/>
<path d="M10676 9893 c-3 -3 -54 -5 -115 -4 -60 1 -121 -1 -135 -5 -42 -10
-46 -45 -36 -271 5 -116 8 -135 25 -147 28 -20 412 -11 435 11 23 21 31 386 9
408 -10 10 -174 17 -183 8z"/>
<path d="M8376 9543 c-22 -56 39 -266 95 -328 132 -145 157 -161 192 -127 19
20 19 22 3 46 -9 14 -22 26 -28 26 -19 0 -98 91 -125 144 -31 62 -63 160 -63
196 0 16 -3 35 -6 44 -8 22 -60 21 -68 -1z"/>
<path d="M6995 10500 c-37 -15 -95 -95 -95 -132 0 -18 4 -38 8 -44 4 -6 52
-10 118 -10 l112 0 16 27 c13 22 15 41 10 79 -4 28 -11 53 -16 56 -9 6 -117
34 -128 33 -3 0 -14 -4 -25 -9z"/>
<path d="M6521 9991 c-6 -10 -13 -52 -16 -92 -4 -41 -11 -103 -16 -138 -12
-79 2 -125 35 -118 38 8 120 29 171 43 28 8 76 16 107 18 59 5 108 28 108 52
0 8 -7 14 -15 14 -27 0 -128 37 -180 66 -54 30 -122 96 -136 131 -4 12 -17 27
-28 33 -16 8 -22 7 -30 -9z"/>
<path d="M5335 6752 c-4 -4 -38 -7 -75 -7 -52 0 -74 -4 -86 -17 -22 -21 -23
-92 -3 -133 12 -26 20 -30 49 -28 19 1 86 4 147 6 142 5 147 9 140 95 -3 35
-9 67 -13 72 -12 10 -150 21 -159 12z"/>
<path d="M5920 6492 c-107 -3 -120 -15 -120 -107 0 -41 5 -66 14 -74 21 -18
320 2 333 22 9 14 8 106 -2 136 -3 11 -12 22 -18 22 -29 3 -129 4 -207 1z"/>
<path d="M5460 6341 c-52 -10 -55 -14 -69 -76 -11 -49 -11 -59 3 -80 15 -23
22 -25 100 -25 78 0 84 1 90 23 13 49 6 114 -15 141 -21 27 -41 30 -109 17z"/>
<path d="M4850 6321 c-14 -27 -13 -144 2 -159 16 -16 110 -15 130 1 10 7 18
36 22 76 8 86 -5 101 -85 101 -47 0 -60 -4 -69 -19z"/>
<path d="M6357 6101 c-73 -8 -87 -24 -87 -102 0 -79 9 -85 134 -81 133 4 170
20 174 77 6 96 -52 124 -221 106z"/>
<path d="M5905 6072 c-44 -9 -58 -33 -52 -96 3 -32 9 -62 14 -66 4 -4 32 -10
61 -12 45 -4 57 -2 74 16 17 18 19 29 14 75 -4 30 -11 60 -17 67 -11 13 -62
22 -94 16z"/>
<path d="M5016 6046 c-8 -6 -19 -36 -24 -65 -8 -46 -7 -59 7 -78 21 -30 44
-36 97 -28 47 7 47 6 58 91 8 59 -16 87 -77 89 -26 1 -53 -3 -61 -9z"/>
<path d="M5402 6048 c-18 -18 -15 -119 4 -146 12 -18 25 -22 67 -22 97 0 107
9 109 92 1 84 -3 88 -91 88 -46 0 -82 -5 -89 -12z"/>
<path d="M9952 6818 c-15 -15 -16 -122 -2 -149 8 -15 21 -19 60 -19 67 0 80
15 80 95 0 53 -3 66 -19 75 -27 14 -104 13 -119 -2z"/>
<path d="M9372 6760 c-12 -19 -10 -129 3 -150 9 -14 189 -12 219 2 31 13 40
38 31 85 -15 82 -16 83 -134 83 -95 0 -108 -2 -119 -20z"/>
<path d="M8884 6710 c-24 -10 -36 -71 -25 -136 l6 -39 109 1 c94 1 111 3 122
19 19 26 18 115 -2 143 -14 20 -23 22 -102 21 -48 0 -96 -4 -108 -9z"/>
<path d="M8176 6663 c-2 -10 -6 -45 -8 -79 -4 -91 1 -94 130 -87 59 3 113 10
120 16 12 10 17 122 6 151 -5 13 -26 16 -124 16 -104 0 -119 -2 -124 -17z"/>
<path d="M10220 6519 c-14 -4 -44 -7 -66 -8 -56 -1 -67 -18 -62 -91 6 -87 12
-90 134 -80 134 10 144 16 144 83 0 29 -6 62 -14 72 -15 21 -96 35 -136 24z"/>
<path d="M9538 6423 c-78 -4 -84 -10 -87 -90 -3 -92 0 -95 142 -87 67 4 128
11 135 17 18 15 16 132 -4 151 -16 16 -28 17 -186 9z"/>
<path d="M8479 6359 c-22 -22 -27 -102 -8 -142 10 -23 11 -23 152 -20 78 2
152 6 164 9 31 6 49 69 37 126 l-9 43 -158 2 c-145 2 -160 0 -178 -18z"/>
<path d="M7995 6303 c-156 -4 -160 -7 -149 -104 10 -90 12 -90 181 -87 170 4
173 5 173 101 0 49 -4 62 -22 78 -13 10 -30 18 -38 16 -8 -1 -74 -3 -145 -4z"/>
<path d="M11180 2973 c-8 -3 -40 -27 -70 -53 -30 -25 -86 -69 -125 -95 -107
-75 -112 -87 -65 -135 43 -44 85 -38 138 23 21 24 62 38 62 21 0 -8 -53 -54
-62 -54 -17 0 -48 -46 -48 -71 0 -20 10 -35 41 -58 l42 -30 36 29 c20 16 54
44 76 64 40 35 89 52 119 40 24 -9 15 -36 -19 -57 -17 -10 -58 -36 -93 -58
-34 -21 -67 -39 -73 -39 -6 0 -23 -8 -37 -19 -15 -10 -94 -49 -175 -85 -82
-37 -164 -77 -183 -88 -20 -12 -47 -22 -60 -24 -14 -1 -58 -18 -99 -37 -40
-20 -109 -43 -152 -53 -43 -9 -109 -31 -148 -49 -38 -17 -97 -37 -130 -44 -33
-7 -76 -18 -95 -26 -30 -12 -122 -40 -322 -101 -26 -8 -60 -14 -77 -14 -16 0
-42 -5 -58 -11 -15 -6 -48 -15 -73 -19 -25 -5 -70 -17 -100 -28 -31 -11 -89
-23 -130 -26 -41 -4 -120 -16 -175 -27 -55 -10 -143 -24 -195 -29 -52 -6 -156
-17 -230 -26 -181 -21 -186 -22 -329 -32 -138 -11 -154 -19 -165 -84 -5 -30
-3 -41 14 -58 22 -22 72 -26 116 -10 30 12 150 25 229 25 44 0 50 -3 53 -22 4
-27 -30 -44 -123 -64 -129 -28 -205 -120 -205 -248 0 -45 15 -74 95 -188 22
-32 94 -62 151 -64 38 -2 58 4 88 25 48 32 62 24 68 -45 6 -60 40 -100 104
-125 67 -25 78 -16 70 59 -8 76 -22 195 -31 263 -6 44 -4 56 18 90 31 50 95
95 123 88 56 -15 59 -120 8 -227 -20 -42 -42 -81 -50 -88 -8 -6 -14 -24 -14
-40 0 -36 59 -79 107 -79 31 0 35 5 73 80 47 94 70 216 51 271 -6 18 -11 42
-11 55 0 28 -125 159 -166 175 -30 11 -72 4 -122 -20 -32 -15 -35 -15 -48 4
-15 21 -19 112 -5 134 6 8 18 11 37 7 16 -3 56 -1 89 5 33 6 92 12 130 13 39
2 100 7 137 11 l67 8 6 -29 c4 -16 9 -36 12 -44 24 -69 18 -110 -16 -110 -28
0 -71 -39 -71 -63 0 -49 22 -95 67 -143 27 -27 60 -63 75 -79 14 -17 50 -51
80 -77 29 -26 71 -63 93 -82 22 -20 43 -36 47 -36 5 0 26 -16 48 -36 48 -43
76 -40 86 11 8 46 -2 72 -34 83 -32 11 -101 65 -183 143 -65 61 -72 85 -43
141 30 58 37 163 18 260 -21 103 -16 113 54 121 26 3 61 13 77 21 17 9 38 16
47 16 10 0 65 13 122 29 152 43 194 48 211 25 8 -11 15 -31 15 -46 0 -29 -4
-31 -85 -42 -56 -8 -158 -61 -193 -100 -59 -68 -49 -196 22 -283 39 -46 144
-95 206 -95 27 0 69 10 104 26 32 14 65 26 72 26 17 0 29 -24 38 -73 4 -22 14
-40 24 -44 9 -3 35 -13 57 -23 60 -26 74 -30 90 -24 21 8 19 34 -9 117 -22 66
-76 240 -97 312 -5 17 -21 71 -37 120 -54 168 -55 177 -27 202 28 25 94 46
128 41 15 -2 25 -14 32 -38 6 -19 18 -51 27 -70 9 -19 33 -87 53 -150 20 -63
41 -119 45 -125 5 -5 16 -38 25 -73 19 -74 58 -164 79 -181 7 -6 24 -14 35
-16 12 -2 37 -9 55 -16 49 -18 69 -7 61 33 -11 58 -56 191 -71 212 -8 11 -14
29 -14 39 0 10 -9 35 -19 55 -11 21 -40 100 -66 177 -26 77 -53 152 -61 167
-12 23 -12 29 2 42 8 9 21 16 27 16 7 0 35 11 62 25 28 13 54 25 58 25 4 0 29
9 55 21 26 11 61 26 77 33 17 8 62 28 101 46 92 41 111 38 145 -25 43 -78 66
-127 79 -168 11 -35 9 -43 -16 -93 -15 -30 -46 -71 -68 -90 -23 -20 -51 -45
-64 -57 -32 -29 -117 -30 -138 -3 -17 24 -18 83 -1 115 13 27 92 77 135 87 58
13 62 15 62 40 0 29 -22 55 -67 78 -41 21 -50 20 -96 -4 -20 -11 -42 -20 -49
-20 -6 0 -35 -18 -64 -40 -54 -41 -65 -62 -80 -151 -9 -55 36 -148 89 -187 77
-54 101 -62 189 -62 87 0 89 1 177 65 18 13 41 39 51 57 28 53 53 48 83 -15
15 -29 38 -64 53 -78 33 -31 115 -51 146 -35 34 17 33 40 -2 97 -17 29 -42 75
-56 103 -48 101 -115 221 -124 224 -6 2 -10 11 -10 19 0 9 -27 67 -60 130 -32
62 -57 120 -54 128 3 8 27 24 52 35 82 38 125 62 192 109 169 118 178 122 199
97 12 -15 -8 -34 -73 -66 -15 -8 -48 -33 -72 -55 -42 -39 -44 -44 -44 -96 1
-65 12 -82 81 -117 l54 -27 1 -50 c1 -154 114 -223 389 -240 61 -3 118 -3 127
0 21 8 42 68 33 96 -6 17 -12 20 -33 14 -15 -4 -68 -7 -117 -7 -84 0 -95 2
-148 32 -65 37 -77 53 -77 107 1 42 21 72 66 97 16 9 41 26 55 37 36 29 69 18
69 -21 0 -21 -10 -36 -40 -60 -63 -50 -56 -70 37 -99 l76 -24 33 35 c23 26 33
48 38 84 8 61 -13 143 -39 158 -11 6 -24 17 -30 24 -28 35 -189 37 -265 3 -19
-9 -55 -34 -79 -56 -51 -47 -75 -51 -79 -13 -3 24 3 30 47 52 27 14 52 30 56
35 3 6 32 25 65 43 76 41 90 70 61 125 -11 22 -27 45 -35 52 -35 29 -17 72 45
108 40 24 46 54 19 93 -24 34 -68 41 -91 14 -24 -29 -52 -33 -103 -13 -26 10
-56 24 -65 32 -9 8 -61 38 -116 67 -95 49 -162 67 -195 53z m198 -158 c37 -19
78 -43 92 -54 23 -19 24 -21 8 -37 -15 -16 -22 -15 -105 12 -62 20 -108 28
-155 28 -77 0 -86 12 -37 47 30 21 73 36 112 38 10 1 48 -15 85 -34z m-1340
-1202 c20 -44 15 -77 -16 -104 -76 -65 -171 -89 -204 -51 -9 9 -19 35 -22 57
-6 35 -4 44 18 64 40 38 96 59 156 60 50 1 56 -1 68 -26z m-1392 -198 c11 -17
10 -28 -4 -70 -28 -79 -99 -145 -158 -145 -38 0 -48 11 -62 70 -11 43 -10 46
24 87 22 27 44 43 57 43 12 0 36 9 52 20 36 24 73 22 91 -5z"/>
<path d="M4446 2705 c-19 -17 -26 -34 -26 -60 0 -40 21 -65 78 -90 39 -17 43
-50 11 -110 -30 -58 -40 -63 -99 -51 -44 9 -53 8 -77 -11 -25 -18 -29 -29 -35
-99 -9 -101 -1 -354 12 -389 5 -14 10 -48 10 -74 0 -56 21 -81 67 -81 52 0 59
19 35 108 -11 42 -28 124 -37 181 -19 124 -16 129 67 138 l56 6 25 -40 c14
-22 39 -46 56 -53 25 -10 31 -18 31 -42 0 -17 -8 -42 -19 -56 -10 -15 -31 -52
-46 -82 -15 -30 -36 -66 -46 -79 -11 -14 -19 -39 -18 -60 0 -44 48 -145 70
-149 11 -2 27 19 50 65 19 37 45 82 58 98 13 17 35 53 48 80 13 28 34 66 46
86 12 20 48 83 79 140 31 57 72 122 91 143 l34 40 51 -22 c28 -12 62 -22 75
-22 13 0 41 -11 62 -25 20 -14 51 -29 69 -32 35 -7 123 -50 132 -65 10 -16 -3
-20 -42 -10 -22 6 -51 13 -65 16 -14 3 -38 17 -53 31 -16 15 -35 24 -43 21 -8
-3 -28 -6 -44 -6 -39 0 -74 -36 -89 -91 -9 -31 -9 -49 -1 -66 15 -32 -10 -80
-47 -93 -15 -6 -33 -13 -41 -18 -21 -12 -51 -102 -51 -153 0 -46 29 -145 54
-183 7 -12 16 -34 20 -49 4 -16 22 -44 41 -62 18 -19 40 -47 47 -62 14 -31 41
-38 94 -28 46 8 44 36 -5 81 -126 113 -147 313 -35 337 75 16 175 -18 190 -65
9 -30 -13 -40 -79 -33 -39 4 -63 2 -73 -6 -21 -18 -17 -64 12 -126 l27 -55 40
5 c58 8 149 58 170 96 11 17 21 57 24 89 7 71 -4 95 -79 174 -46 48 -63 59
-127 79 -72 23 -96 43 -71 59 16 10 37 3 69 -22 13 -10 33 -18 45 -18 27 0
106 -30 128 -47 9 -8 29 -13 45 -11 23 2 34 14 64 73 31 59 40 70 60 67 12 -1
30 -9 39 -17 18 -16 57 -19 78 -6 20 12 42 60 42 89 0 26 -24 51 -51 52 -19 0
-78 27 -99 46 -8 7 -48 22 -89 33 -40 11 -108 37 -150 57 -153 72 -346 168
-351 174 -3 3 -29 16 -59 29 -30 12 -80 40 -111 62 -32 21 -61 39 -65 39 -4 0
-26 15 -48 33 -46 36 -64 47 -123 75 -23 11 -45 25 -48 31 -11 17 -31 13 -60
-14z m342 -317 c30 -15 28 -50 -5 -105 -58 -93 -62 -96 -118 -83 -86 19 -93
37 -42 109 18 25 38 59 45 74 15 36 50 50 77 31 11 -8 30 -19 43 -26z"/>
</g>
</svg>
